<svg width="315" height="295" viewBox="0 0 315 295" fill="none" xmlns="http://www.w3.org/2000/svg">
<g clip-path="url(#clip0_251_71)">
<path fill-rule="evenodd" clip-rule="evenodd" d="M342.651 4.98334L233.853 135.584L110.827 157.06L5.97372 283.679L-143.161 309.711L-144.558 301.707L1.62569 276.189L106.479 149.57L229.518 128.092L336.408 -0.217651L342.651 4.98334Z" fill="url(#paint0_linear_251_71)"/>
<path fill-rule="evenodd" clip-rule="evenodd" d="M378.543 216.487L375.033 217.1L374.423 213.6L377.932 212.988L378.543 216.487ZM368.015 218.325L360.997 219.55L360.386 216.051L367.404 214.825L368.015 218.325ZM353.979 220.775L346.961 222L346.35 218.501L353.368 217.276L353.979 220.775ZM339.943 223.225L332.924 224.45L332.314 220.951L339.332 219.726L339.943 223.225ZM325.906 225.675L318.888 226.901L318.277 223.401L325.295 222.176L325.906 225.675ZM311.87 228.126L304.852 229.351L304.241 225.851L311.259 224.626L311.87 228.126ZM297.833 230.576L290.815 231.801L290.204 228.301L297.223 227.076L297.833 230.576ZM283.797 233.026L276.779 234.251L276.168 230.752L283.186 229.526L283.797 233.026ZM269.761 235.476L262.743 236.701L262.132 233.202L269.15 231.977L269.761 235.476ZM255.724 237.926L248.706 239.151L248.095 235.652L255.113 234.427L255.724 237.926ZM241.688 240.377L234.67 241.602L234.059 238.102L241.077 236.877L241.688 240.377ZM227.652 242.827L220.633 244.052L220.023 240.552L227.041 239.327L227.652 242.827ZM213.615 245.277L206.597 246.502L205.986 243.002L213.004 241.777L213.615 245.277ZM199.579 247.727L192.561 248.952L191.95 245.453L198.968 244.228L199.579 247.727ZM185.542 250.177L178.524 251.402L177.913 247.903L184.932 246.678L185.542 250.177ZM171.506 252.627L164.488 253.853L163.877 250.353L170.895 249.128L171.506 252.627ZM157.47 255.078L150.451 256.303L149.841 252.803L156.859 251.578L157.47 255.078ZM143.433 257.528L136.415 258.753L135.804 255.253L142.822 254.028L143.433 257.528ZM129.397 259.978L122.379 261.203L121.768 257.704L128.786 256.478L129.397 259.978ZM115.36 262.428L108.342 263.653L107.731 260.154L114.75 258.929L115.36 262.428ZM101.324 264.878L94.3058 266.103L93.6949 262.604L100.713 261.379L101.324 264.878ZM87.2876 267.329L80.2694 268.554L79.6585 265.054L86.6767 263.829L87.2876 267.329ZM73.2512 269.779L66.2329 271.004L65.6221 267.504L72.6403 266.279L73.2512 269.779ZM59.2148 272.229L52.1966 273.454L51.5857 269.954L58.6039 268.729L59.2148 272.229ZM45.1783 274.679L38.1601 275.904L37.5493 272.405L44.5675 271.18L45.1783 274.679ZM31.1419 277.129L24.1237 278.354L23.5129 274.855L30.5311 273.63L31.1419 277.129ZM17.1055 279.579L10.0873 280.805L9.47646 277.305L16.4947 276.08L17.1055 279.579ZM3.06914 282.03L-3.94908 283.255L-4.55994 279.755L2.45825 278.53L3.06914 282.03ZM-10.9673 284.48L-17.9855 285.705L-18.5964 282.205L-11.5782 280.98L-10.9673 284.48ZM-25.0037 286.93L-32.0219 288.155L-32.6328 284.656L-25.6146 283.431L-25.0037 286.93ZM-39.0401 289.38L-46.0583 290.605L-46.6692 287.106L-39.651 285.881L-39.0401 289.38ZM-53.0765 291.83L-60.0947 293.055L-60.7056 289.556L-53.6874 288.331L-53.0765 291.83ZM-67.1129 294.281L-74.1311 295.506L-74.742 292.006L-67.7238 290.781L-67.1129 294.281ZM-81.1493 296.731L-88.1675 297.956L-88.7784 294.456L-81.7602 293.231L-81.1493 296.731ZM-95.1857 299.181L-102.204 300.406L-102.815 296.906L-95.7966 295.681L-95.1857 299.181ZM-109.222 301.631L-116.24 302.856L-116.851 299.357L-109.833 298.132L-109.222 301.631ZM-123.258 304.081L-130.277 305.306L-130.888 301.807L-123.869 300.582L-123.258 304.081ZM-137.295 306.531L-140.804 307.144L-141.415 303.645L-137.906 303.032L-137.295 306.531Z" fill="#FF95AE"/>
</g>
<defs>
<linearGradient id="paint0_linear_251_71" x1="379.04" y1="5.50446" x2="31.9943" y2="306.145" gradientUnits="userSpaceOnUse">
<stop stop-color="#252525" stop-opacity="0"/>
<stop offset="0.5" stop-color="#FF95AE"/>
<stop offset="1" stop-color="#252525" stop-opacity="0"/>
</linearGradient>
<clipPath id="clip0_251_71">
<rect width="315" height="310" fill="white"/>
</clipPath>
</defs>
</svg>
