<svg width="41" height="43" viewBox="0 0 41 43" fill="none" xmlns="http://www.w3.org/2000/svg">
                <g id="Group 1">
                <path id="Exclude" d="M22.1966 0H19.4848L17.6769 0.200874L16.0699 0.502186L13.9608 1.10481L11.952 1.90831L10.4455 2.7118L8.73803 3.81661L7.43235 4.82098L6.62885 5.52404L5.82535 6.32754L4.62011 7.73366L3.61574 9.03934L2.51093 10.8472L1.50656 12.9564L0.70306 15.3669L0.200874 17.7774L0 19.7861L0.100437 22.3975L0.401749 24.6071L0.903934 26.7163L1.80787 29.1268L2.75974 30.9353C2.79468 31.0017 2.83486 31.0652 2.87988 31.1253L3.31019 31.699C3.37415 31.7843 3.4814 31.8253 3.58593 31.8044L3.80881 31.7598C3.8648 31.7486 3.91705 31.7914 3.91705 31.8485C3.91705 31.8985 3.87653 31.939 3.82656 31.939H3.77501C3.73734 31.939 3.70121 31.954 3.67457 31.9806L3.473 32.1822C3.43433 32.2208 3.39959 32.2632 3.36926 32.3087L3.18769 32.5811C3.07386 32.7518 3.01311 32.9524 3.01311 33.1577C3.01311 33.346 3.06431 33.5309 3.16124 33.6924L3.19586 33.7501C3.27427 33.8808 3.37536 33.9965 3.49438 34.0917L3.73068 34.2808C3.78677 34.3256 3.8287 34.3857 3.85141 34.4539C3.89222 34.5763 3.86678 34.7111 3.78417 34.8103L3.61268 35.016C3.48486 35.1694 3.41486 35.3628 3.41486 35.5624V35.8022C3.41486 36.0346 3.47803 36.2626 3.5976 36.4619L3.60408 36.4727C3.67822 36.5963 3.77378 36.7056 3.8863 36.7957L4.05068 36.9272C4.15922 37.014 4.29409 37.0613 4.4331 37.0613H4.83564C5.10577 37.0613 5.28147 37.3456 5.16066 37.5872C5.13543 37.6377 5.12229 37.6933 5.12229 37.7497V38.1189C5.12229 38.216 5.14489 38.3117 5.18831 38.3986C5.21117 38.4443 5.23955 38.487 5.27283 38.5259L5.5972 38.9043C5.74201 39.0732 5.95342 39.1705 6.17594 39.1705H6.68029C6.98876 39.1705 7.19674 39.4859 7.07522 39.7694C7.04597 39.8377 7.03491 39.9123 7.04311 39.9861L7.0712 40.2389C7.10969 40.5853 7.27689 40.9051 7.53921 41.1346C7.79383 41.3574 8.12103 41.4805 8.45937 41.4805H9.00453C9.16139 41.4805 9.31797 41.4676 9.4727 41.4418L9.6252 41.4164C9.76999 41.3922 9.91225 41.3549 10.0502 41.3047L10.7593 41.0468C10.8802 41.0029 10.9797 40.9142 11.0373 40.7991L11.2933 40.2871C11.3209 40.2319 11.3945 40.2199 11.4381 40.2636C11.4459 40.2713 11.4521 40.2804 11.4566 40.2904L12.1876 41.9148C12.2962 42.1561 12.4705 42.3619 12.6906 42.5086L12.7078 42.5201C12.8715 42.6292 13.0574 42.7002 13.2521 42.728L13.3368 42.7401C13.5469 42.7701 13.7612 42.7354 13.951 42.6404L14.0641 42.5839C14.1926 42.5196 14.2968 42.4154 14.3611 42.2869C14.4271 42.1549 14.4472 42.0045 14.4183 41.8598L14.2852 41.1943C14.2698 41.1174 14.2481 41.042 14.2203 40.9687L13.2514 38.4143C13.2137 38.315 13.3083 38.2164 13.4091 38.25C13.4408 38.2606 13.467 38.2833 13.4819 38.3132L13.559 38.4674L14.6638 41.1792L15.0901 42.0317C15.2046 42.2607 15.3902 42.4464 15.6192 42.5609C15.7835 42.643 15.9647 42.6858 16.1484 42.6858H16.3079C16.4808 42.6858 16.6504 42.6388 16.7987 42.5498C16.9775 42.4425 17.1162 42.2797 17.1937 42.0861L17.2021 42.0649C17.2504 41.9443 17.2752 41.8155 17.2752 41.6855V41.5213C17.2752 41.2303 17.2074 40.9433 17.0773 40.683L15.9695 38.4674L15.6828 37.6789C15.6463 37.5787 15.7591 37.4902 15.8478 37.5493C15.8618 37.5586 15.8735 37.571 15.8819 37.5856L16.5721 38.7687L17.7774 41.0788L18.1405 41.6235C18.2957 41.8563 18.5241 42.0308 18.7895 42.1192L18.9507 42.1729C19.164 42.2441 19.397 42.2275 19.5981 42.1269C19.7839 42.034 19.9292 41.8762 20.0063 41.6833L20.0199 41.6494C20.0645 41.5378 20.0874 41.4188 20.0874 41.2987V41.1195C20.0874 40.8285 20.0197 40.5415 19.8895 40.2812L19.6857 39.8735L18.8822 38.367L18.6569 37.8038C18.6069 37.6788 18.7528 37.5669 18.8606 37.6477C18.8748 37.6584 18.8868 37.6718 18.8958 37.6872L19.5852 38.8692L20.5324 40.6846C20.6993 41.0045 20.9717 41.2569 21.3033 41.399C21.4296 41.4531 21.5624 41.4904 21.6984 41.5098L21.7287 41.5141C22.0334 41.5577 22.3441 41.5072 22.6193 41.3696C22.8683 41.2451 23.0782 41.0543 23.2257 40.8182L23.408 40.5266C23.4703 40.4268 23.5141 40.3166 23.5372 40.2013C23.5797 39.9889 23.5501 39.7683 23.4532 39.5746L23.0001 38.6683L20.4892 34.6508L19.8214 33.4821C19.7313 33.3245 19.6206 33.1797 19.4923 33.0513C19.1625 32.7215 18.7297 32.5145 18.2659 32.4648L16.1704 32.2403L14.9776 32.0018C14.7693 31.9601 14.5676 31.8909 14.3776 31.7959L13.1686 31.1914C13.1001 31.1571 13.0568 31.0871 13.0568 31.0106C13.0568 30.9616 13.0391 30.9143 13.0068 30.8775L12.5327 30.3357C12.4139 30.1999 12.3129 30.0495 12.2322 29.8881L11.9533 29.3301C11.8203 29.0643 11.7511 28.7712 11.7511 28.4739V28.2333C11.7511 28.0943 11.7835 27.9572 11.8457 27.8329C11.9154 27.6935 12.0202 27.5747 12.1499 27.4883L12.2577 27.4164C12.4525 27.2866 12.677 27.2083 12.9103 27.1888L13.7599 27.118H15.4903C15.6272 27.118 15.7239 26.9839 15.6806 26.854C15.6724 26.8294 15.6595 26.8066 15.6426 26.7869L15.2705 26.3527C15.1342 26.1937 14.9823 26.0489 14.8171 25.9204L14.7165 25.8421C14.3489 25.5563 13.9315 25.3284 13.493 25.1718C13.0099 24.9992 12.4933 24.9084 11.9802 24.9084H11.4498L9.54153 25.1093H8.33019C8.13604 25.1093 7.94457 25.0641 7.77092 24.9773C7.67947 24.9315 7.59397 24.8748 7.51633 24.8082L7.38508 24.6957C7.08557 24.439 6.84579 24.1159 6.68558 23.7555C6.58187 23.5221 6.51128 23.2733 6.47753 23.0202L6.32754 21.8953V19.2839L6.42798 18.2796L6.61514 17.4373C6.75784 16.7952 6.96431 16.1689 7.23147 15.5678C7.36503 15.1003 7.54701 14.6481 7.77446 14.2185L8.31018 13.2066C8.32752 13.1738 8.34083 13.1391 8.34981 13.1031L8.41236 12.853C8.42668 12.7957 8.47813 12.7555 8.53716 12.7555C8.59618 12.7555 8.64764 12.7153 8.66195 12.6581L8.70912 12.4694C8.72611 12.4014 8.78717 12.3538 8.85721 12.3538C8.90825 12.3538 8.95591 12.3283 8.98422 12.2858L9.10706 12.1015C9.12881 12.0689 9.14712 12.0341 9.16168 11.9977L9.30601 11.6369C9.32693 11.5846 9.3776 11.5503 9.43394 11.5503C9.49717 11.5503 9.55229 11.5072 9.56762 11.4459L9.6206 11.234C9.63316 11.1837 9.67828 11.1485 9.73004 11.1485H9.7424C9.79787 11.1485 9.84284 11.1036 9.84284 11.0481C9.84284 10.9926 9.88781 10.9476 9.94328 10.9476H9.98488C10.0225 10.9476 10.0587 10.9327 10.0853 10.906L10.9256 10.0658C10.9402 10.0512 10.9524 10.0343 10.9616 10.0158L11.0007 9.93769C11.0588 9.82149 10.9538 9.69064 10.8278 9.72215C10.7773 9.73477 10.7368 9.77227 10.7204 9.8216L10.694 9.90079C10.6655 9.98614 10.5857 10.0437 10.4957 10.0437C10.4057 10.0437 10.3258 10.1013 10.2974 10.1866L10.2873 10.2168C10.2618 10.2934 10.1902 10.345 10.1095 10.345C10.0669 10.345 10.0256 10.3595 9.99236 10.3861L9.54153 10.7468L8.73803 11.5503L7.8341 12.5546L6.93016 13.6594L6.12667 14.7643L5.02186 16.6726L4.67009 17.5168C4.63721 17.5957 4.51967 17.5722 4.51967 17.4867C4.51967 17.4796 4.52063 17.4726 4.52252 17.4658L5.02186 15.6682L5.62448 13.9608L6.72929 11.7511L7.39409 10.7065C7.41943 10.6666 7.43818 10.623 7.44963 10.5772L7.50559 10.3534C7.52157 10.2894 7.57901 10.2446 7.64491 10.2446C7.6993 10.2446 7.74903 10.2139 7.77335 10.1652L7.8341 10.0437L7.99206 9.64881C8.01798 9.58401 8.08073 9.54153 8.15051 9.54153C8.20423 9.54153 8.25481 9.51624 8.28704 9.47326L8.83847 8.73803L9.54153 7.93453L10.2796 7.2887C10.3224 7.25123 10.3545 7.20301 10.3725 7.14903L10.4035 7.05609C10.4286 6.98089 10.4989 6.93016 10.5782 6.93016C10.6222 6.93016 10.6647 6.91443 10.6981 6.88582L11.3494 6.32754L12.4542 5.52404L13.8603 4.62011L15.9695 3.61574L17.7774 3.01311L20.0874 2.51093L21.9957 2.31005H24.5067L26.9172 2.61137L28.9259 3.11355L30.1413 3.59971C31.0038 3.94472 31.8397 4.35291 32.6421 4.82098L34.0482 5.72492L35.4543 6.82972L37.0519 8.42729C37.1059 8.48134 37.197 8.46655 37.2312 8.39819C37.2502 8.36025 37.2461 8.31485 37.2206 8.28091L36.9609 7.93453L35.8966 6.58007C35.871 6.54746 35.8318 6.52841 35.7904 6.52841H35.786C35.7138 6.52841 35.6552 6.46983 35.6552 6.39757C35.6552 6.35382 35.6333 6.31296 35.5969 6.28869L35.4009 6.15803C35.3696 6.13717 35.3405 6.11327 35.3139 6.08668L34.6508 5.4236L33.3451 4.3188L31.6377 3.11355L30.2316 2.31005L28.5241 1.50656L26.5154 0.803497L24.4062 0.301311L22.1966 0ZM7.90475 32.4114C7.8358 32.3425 7.7177 32.3839 7.70693 32.4808L7.64231 33.0624C7.63631 33.1164 7.61931 33.1686 7.59236 33.2157L7.58561 33.2276C7.41916 33.5188 7.6079 33.885 7.94172 33.9183L8.05222 33.9294C8.17096 33.9413 8.28194 33.9939 8.36631 34.0782C8.41282 34.1247 8.45002 34.1797 8.47592 34.2401L8.62613 34.5906C8.69995 34.7629 8.73802 34.9483 8.73802 35.1357V35.3244C8.73802 35.4746 8.69356 35.6214 8.61024 35.7464L8.57203 35.8037C8.54895 35.8384 8.53199 35.8767 8.52189 35.9171C8.47439 36.1071 8.58611 36.3005 8.77441 36.3543L8.96992 36.4101C9.08058 36.4418 9.17917 36.506 9.25286 36.5944L9.39709 36.7675C9.55697 36.9593 9.65842 37.193 9.6894 37.4408L9.72483 37.7243C9.73628 37.8159 9.72036 37.9089 9.67906 37.9915C9.52358 38.3024 9.75011 38.6683 10.0978 38.6683C10.1286 38.6683 10.1594 38.6713 10.1896 38.6774L10.6127 38.762C10.635 38.7665 10.6567 38.7739 10.677 38.7841L10.8436 38.8674C10.9375 38.9143 11.0481 38.846 11.0481 38.741C11.0481 38.6954 11.026 38.6526 10.9889 38.626L10.6965 38.4172C10.4759 38.2596 10.345 38.0052 10.345 37.7341V37.2429C10.345 37.1231 10.3207 37.0045 10.2735 36.8944L10.0751 36.4316C10.0561 36.3871 10.0123 36.3582 9.96388 36.3582C9.89703 36.3582 9.84283 36.304 9.84283 36.2372V36.23C9.84283 36.1849 9.81919 36.1432 9.78056 36.12L9.5728 35.9953C9.42625 35.9074 9.32826 35.757 9.30706 35.5874L9.26279 35.2332C9.24781 35.1134 9.21606 34.9962 9.16849 34.8852L8.93889 34.3495L8.75658 34.0456C8.67886 33.9161 8.56582 33.8114 8.43071 33.7439C8.18468 33.6209 8.01981 33.3793 7.9949 33.1054L7.93834 32.4831C7.93587 32.456 7.92399 32.4307 7.90475 32.4114Z" fill="#004AAA"/>
                <path id="Vector" d="M34.9003 23.6267C34.9281 23.5061 35.0537 23.4357 35.1711 23.4748V23.4748C35.2238 23.4924 35.2675 23.5303 35.2924 23.58L35.3175 23.6302C35.3414 23.6782 35.3539 23.7311 35.3539 23.7847V26.6042C35.3539 27.4135 35.274 28.2208 35.1153 29.0143L34.9522 29.8298L34.45 31.5373L34.0379 32.4792C33.9336 32.7177 34.1749 32.9608 34.4142 32.8583V32.8583C34.4379 32.8481 34.4602 32.8348 34.4804 32.8186L35.8714 31.7059C35.9265 31.6617 35.995 31.6377 36.0656 31.6377V31.6377C36.1835 31.6377 36.2911 31.5711 36.3438 31.4658L36.417 31.3195C36.4446 31.2642 36.481 31.2136 36.5248 31.1699L37.4366 30.2581C37.7217 29.9729 37.9863 29.6679 38.2282 29.3453L38.4675 29.0263V29.0263C39.1359 28.0237 39.7204 26.9675 40.2149 25.8686L40.3758 25.511L40.6299 24.918C40.6585 24.8513 40.7242 24.808 40.7968 24.808V24.808C40.8971 24.808 40.9784 24.8893 40.9784 24.9896V25.4129C40.9784 25.4779 40.9679 25.5425 40.9474 25.6042L40.0745 28.2228L39.1705 30.2316L38.1662 31.939L37.1618 33.3451L35.9566 34.7513L34.3496 36.3582L32.6421 37.6639L31.0351 38.6683L29.1268 39.6727L27.1181 40.4762L25.9797 40.8265C25.8688 40.8606 25.7534 40.8779 25.6374 40.8779V40.8779C25.3018 40.8779 24.9826 40.7331 24.7616 40.4805L24.5267 40.2121C24.4466 40.1205 24.3752 40.0216 24.3135 39.9167L23.4019 38.367L22.0962 36.2578L20.9914 34.4499L20.2884 33.3451L19.7606 32.6666C19.6447 32.5176 19.5023 32.3914 19.3405 32.2943V32.2943C19.1705 32.1923 18.9824 32.1244 18.7865 32.0942L17.7774 31.939L16.6531 31.8765C16.1991 31.8513 15.7498 31.771 15.3153 31.6372L15.2201 31.608C14.8506 31.4943 14.4963 31.3363 14.1649 31.1374L14.0752 31.0836C13.7991 30.918 13.5444 30.7191 13.3167 30.4914V30.4914C13.0775 30.2522 12.8702 29.9832 12.6997 29.6911L12.3738 29.1322C12.2943 28.9961 12.2433 28.8453 12.2238 28.6889L12.2006 28.504C12.1706 28.2632 12.2533 28.0221 12.4249 27.8505V27.8505C12.5723 27.703 12.7723 27.6202 12.9808 27.6202H21.1683C21.6424 27.6202 22.1059 27.7605 22.5003 28.0235V28.0235C22.6985 28.1557 22.876 28.3166 23.0268 28.5009L23.7032 29.3276L24.6072 30.5329L25.2389 31.3051C25.4197 31.526 25.6265 31.7243 25.8549 31.8956L25.9335 31.9545C26.1859 32.1438 26.4672 32.2912 26.7666 32.391V32.391C27.0659 32.4908 27.3794 32.5416 27.6949 32.5416H27.9227C28.3855 32.5416 28.8432 32.4445 29.2661 32.2565L29.4769 32.1629C29.5113 32.1476 29.5469 32.1353 29.5835 32.1262L29.7339 32.0885C29.8563 32.058 29.9545 31.967 29.9943 31.8474V31.8474C30.0181 31.7763 30.0629 31.714 30.1229 31.669L30.3762 31.4791C30.4128 31.4516 30.4572 31.4368 30.5029 31.4368V31.4368C30.5829 31.4368 30.656 31.3916 30.6917 31.3201L30.7925 31.1186C30.8202 31.0633 30.8566 31.0128 30.9003 30.969L31.5373 30.332L32.843 28.6246L33.6465 27.2185L34.6183 24.789C34.64 24.7348 34.6575 24.679 34.6706 24.6221L34.9003 23.6267Z" fill="#00C2CB"/>
                <path id="Exclude_2" d="M6.36151 31.262C6.20535 31.2447 6.04779 31.2438 5.89144 31.2595L5.12224 31.3364L3.9534 31.6061C3.88002 31.6231 3.83715 31.6995 3.86097 31.7709L3.86808 31.7923C3.89214 31.8645 3.83841 31.939 3.7623 31.939C3.73273 31.939 3.70437 31.9508 3.68347 31.9717L3.47294 32.1822C3.43428 32.2208 3.39953 32.2632 3.36921 32.3087L3.18763 32.5811C3.0738 32.7518 3.01306 32.9524 3.01306 33.1577C3.01306 33.346 3.06426 33.5309 3.16119 33.6924L3.1958 33.7501C3.27422 33.8808 3.37531 33.9965 3.49433 34.0917L3.73063 34.2808C3.78672 34.3256 3.82864 34.3858 3.85136 34.4539C3.89216 34.5763 3.86672 34.7111 3.78411 34.8103L3.61263 35.0161C3.48481 35.1694 3.41481 35.3628 3.41481 35.5624V35.8022C3.41481 36.0346 3.47798 36.2626 3.59755 36.4619L3.60403 36.4727C3.67816 36.5963 3.77373 36.7056 3.88625 36.7957L4.05063 36.9272C4.15917 37.014 4.29404 37.0613 4.43304 37.0613H4.83558C5.10572 37.0613 5.28141 37.3456 5.1606 37.5872C5.13538 37.6377 5.12224 37.6933 5.12224 37.7497V38.1189C5.12224 38.216 5.14484 38.3117 5.18825 38.3986C5.21112 38.4443 5.2395 38.487 5.27277 38.5259L5.59714 38.9043C5.74196 39.0732 5.95337 39.1705 6.17588 39.1705H6.68023C6.98871 39.1705 7.19668 39.4859 7.07517 39.7694C7.04592 39.8377 7.03486 39.9123 7.04306 39.9861L7.07114 40.2389C7.10963 40.5853 7.27684 40.9051 7.53915 41.1346C7.79378 41.3574 8.12097 41.4805 8.45931 41.4805H9.00448C9.16133 41.4805 9.31792 41.4676 9.47264 41.4418L9.62514 41.4164C9.76993 41.3922 9.9122 41.3549 10.0501 41.3047L10.7592 41.0468C10.8802 41.0029 10.9797 40.9142 11.0372 40.7991L11.32 40.2335C11.3344 40.2046 11.3729 40.1984 11.3957 40.2212C11.4206 40.2461 11.4629 40.2361 11.474 40.2027L11.532 40.0287C11.5438 39.9933 11.5429 39.955 11.5295 39.9202L11.1623 38.9654C11.1326 38.8882 11.0941 38.8151 11.0479 38.7475C11.048 38.7453 11.048 38.7431 11.048 38.7409C11.048 38.6953 11.026 38.6524 10.9889 38.6259L10.7781 38.4754C10.506 38.2758 10.345 37.9584 10.345 37.6205V37.2429C10.345 37.2354 10.3449 37.2279 10.3447 37.2204C10.3449 37.2279 10.345 37.2353 10.345 37.2428V37.734C10.345 38.0051 10.4759 38.2595 10.6965 38.4171L10.7781 38.4754C10.7817 38.478 10.7853 38.4806 10.789 38.4833C10.8906 38.5559 10.9781 38.6454 11.0479 38.7475C11.0434 38.8488 10.9355 38.9132 10.8436 38.8673L10.677 38.784C10.6566 38.7738 10.635 38.7664 10.6126 38.7619L10.1895 38.6773C10.1593 38.6712 10.1285 38.6682 10.0977 38.6682C9.75006 38.6682 9.52354 38.3023 9.67902 37.9913C9.72031 37.9088 9.73623 37.8158 9.72478 37.7242L9.68935 37.4407C9.65837 37.1929 9.55692 36.9592 9.39705 36.7674L9.25281 36.5943C9.17913 36.5059 9.08054 36.4417 8.96987 36.41L8.77436 36.3542C8.58606 36.3004 8.47435 36.107 8.52184 35.917C8.53194 35.8766 8.5489 35.8382 8.57199 35.8036L8.6102 35.7463C8.69351 35.6213 8.73797 35.4745 8.73797 35.3243V35.1356C8.73797 34.9482 8.69991 34.7628 8.62608 34.5905L8.47588 34.24C8.44997 34.1796 8.41277 34.1246 8.36627 34.0781C8.28189 33.9937 8.17092 33.9412 8.05218 33.9293L7.94167 33.9182C7.60786 33.8848 7.41912 33.5187 7.58556 33.2275L7.59231 33.2156C7.61926 33.1685 7.63626 33.1163 7.64226 33.0623L7.70688 32.4807C7.71719 32.388 7.82579 32.346 7.89555 32.403C7.92844 32.506 7.95006 32.6126 7.95989 32.7207L7.93829 32.483C7.93583 32.4559 7.92394 32.4306 7.9047 32.4113C7.90174 32.4083 7.89868 32.4056 7.89555 32.403C7.87226 32.3301 7.84334 32.2589 7.80895 32.1901L7.77711 32.1264C7.68218 31.9366 7.54899 31.7684 7.38591 31.6325C7.15413 31.4394 6.87067 31.3186 6.57079 31.2853L6.36151 31.262ZM7.99486 33.1053L7.99486 33.1054C8.01976 33.3793 8.18463 33.6209 8.43066 33.7439C8.56578 33.8114 8.67882 33.9161 8.75654 34.0456L8.93885 34.3495L9.16844 34.8852C9.21602 34.9962 9.24777 35.1134 9.26275 35.2332L9.30702 35.5874C9.32822 35.757 9.42621 35.9074 9.57276 35.9953L9.78052 36.12C9.81732 36.1421 9.84052 36.181 9.84263 36.2236C9.84273 36.2257 9.84278 36.2278 9.84278 36.2299V36.2371C9.84278 36.2387 9.84281 36.2402 9.84287 36.2418C9.8453 36.3065 9.89853 36.3582 9.96384 36.3582C10.0123 36.3582 10.056 36.3871 10.0751 36.4316L10.2734 36.8944C10.3125 36.9855 10.3359 37.0823 10.3428 37.1808C10.3359 37.0822 10.3125 36.9854 10.2734 36.8943L10.0751 36.4315C10.056 36.387 10.0123 36.3581 9.96383 36.3581C9.89856 36.3581 9.84536 36.3065 9.84287 36.2418C9.84281 36.2403 9.84279 36.2387 9.84279 36.2372V36.23C9.84279 36.2279 9.84273 36.2257 9.84263 36.2236C9.84055 36.181 9.81735 36.142 9.78051 36.1199L9.57275 35.9952C9.4262 35.9073 9.32821 35.7569 9.30702 35.5873L9.26274 35.2331C9.24776 35.1133 9.21602 34.9961 9.16844 34.8851L8.93885 34.3494L8.75654 34.0455C8.67882 33.916 8.56577 33.8113 8.43066 33.7438C8.18463 33.6208 8.01976 33.3792 7.99486 33.1053Z" fill="#00C2CB"/>
                </g>
                </svg>