<svg width="292" height="186" viewBox="0 0 292 186" fill="none" xmlns="http://www.w3.org/2000/svg">
<path d="M145.761 0.75C122.985 0.75 104.261 19.4736 104.261 42.25C104.261 53.5977 108.881 63.9727 116.419 71.5107V71.5918C111.799 74.5098 107.747 78.2383 104.099 82.4531C103.451 60.2442 85.1323 42.25 62.7612 42.25C39.9849 42.25 21.2612 60.9736 21.2612 83.75C21.2612 94.8545 25.8003 104.986 32.9331 112.443C13.7231 123.062 0.51123 143.325 0.51123 166.75H21.2612C21.2612 143.73 39.7417 125.25 62.7612 125.25C72.1636 125.25 80.6743 128.33 87.645 133.518L104.261 146V125.25C104.261 102.23 122.742 83.75 145.761 83.75C168.781 83.75 187.261 102.23 187.261 125.25V146L203.877 133.518C210.848 128.33 219.359 125.25 228.761 125.25C251.781 125.25 270.261 143.73 270.261 166.75H291.011C291.011 143.325 277.799 123.062 258.589 112.443C265.722 104.986 270.261 94.8545 270.261 83.75C270.261 60.9736 251.538 42.25 228.761 42.25C206.39 42.25 188.072 60.2442 187.342 82.4531C183.776 78.2383 179.723 74.4287 175.103 71.5107C182.641 63.9727 187.261 53.5977 187.261 42.25C187.261 19.4736 168.538 0.75 145.761 0.75ZM145.761 21.5C157.352 21.5 166.511 30.6592 166.511 42.25C166.511 53.8408 157.352 63 145.761 63C134.17 63 125.011 53.8408 125.011 42.25C125.011 30.6592 134.17 21.5 145.761 21.5ZM62.7612 63C74.3521 63 83.5112 72.1592 83.5112 83.75C83.5112 95.3408 74.3521 104.5 62.7612 104.5C51.1704 104.5 42.0112 95.3408 42.0112 83.75C42.0112 72.1592 51.1704 63 62.7612 63ZM228.761 63C240.352 63 249.511 72.1592 249.511 83.75C249.511 95.3408 240.352 104.5 228.761 104.5C217.17 104.5 208.011 95.3408 208.011 83.75C208.011 72.1592 217.17 63 228.761 63ZM145.761 146C122.985 146 104.261 164.724 104.261 187.5C104.261 198.604 108.8 208.736 115.933 216.193C96.7232 226.812 83.5112 247.075 83.5112 270.5H104.261C104.261 247.48 122.742 229 145.761 229C168.781 229 187.261 247.48 187.261 270.5H208.011C208.011 247.075 194.799 226.812 175.589 216.193C182.722 208.736 187.261 198.604 187.261 187.5C187.261 164.724 168.538 146 145.761 146ZM145.761 166.75C157.352 166.75 166.511 175.909 166.511 187.5C166.511 199.091 157.352 208.25 145.761 208.25C134.17 208.25 125.011 199.091 125.011 187.5C125.011 175.909 134.17 166.75 145.761 166.75Z" fill="#898989"/>
</svg>
