<svg width="282" height="194" viewBox="0 0 282 194" fill="none" xmlns="http://www.w3.org/2000/svg">
<path d="M1.40632 185.598C-0.1883 187.852 0.346611 190.973 2.60108 192.567C4.85555 194.162 7.97586 193.627 9.57048 191.373L1.40632 185.598ZM279.843 5.33608C279.713 2.5777 277.372 0.446799 274.613 0.576569L229.663 2.69128C226.905 2.82105 224.774 5.16236 224.904 7.92073C225.033 10.6791 227.375 12.81 230.133 12.6802L270.089 10.8005L271.969 50.7563C272.098 53.5147 274.44 55.6456 277.198 55.5158C279.956 55.386 282.087 53.0447 281.958 50.2864L279.843 5.33608ZM161.488 108.417L163.012 103.655L161.488 108.417ZM187.599 101.435L183.902 98.0693L187.599 101.435ZM140.525 101.705L139 106.467L140.525 101.705ZM97.2271 135.439L92.9864 132.79L97.2271 135.439ZM9.57048 191.373L35.1783 155.168L27.0142 149.394L1.40632 185.598L9.57048 191.373ZM57.8484 147.75L66.511 150.646L69.6819 141.162L61.0193 138.266L57.8484 147.75ZM101.468 138.087L115.939 114.919L107.458 109.622L92.9864 132.79L101.468 138.087ZM139 106.467L159.963 113.179L163.012 103.655L142.049 96.9436L139 106.467ZM191.297 104.8L278.546 8.93652L271.151 2.20556L183.902 98.0693L191.297 104.8ZM159.963 113.179C171.147 116.76 183.393 113.485 191.297 104.8L183.902 98.0693C178.632 103.859 170.468 106.042 163.012 103.655L159.963 113.179ZM115.939 114.919C120.787 107.158 130.285 103.677 139 106.467L142.049 96.9436C128.976 92.7581 114.73 97.9795 107.458 109.622L115.939 114.919ZM66.511 150.646C79.6654 155.044 94.1197 149.851 101.468 138.087L92.9864 132.79C88.0877 140.632 78.4515 144.094 69.6819 141.162L66.511 150.646ZM35.1783 155.168C40.2722 147.967 49.4826 144.953 57.8484 147.75L61.0193 138.266C48.4706 134.07 34.6549 138.591 27.0142 149.394L35.1783 155.168Z" fill="#898989"/>
<path d="M256.399 189.551V89.2888" stroke="#4F4F4F" stroke-width="4" stroke-linecap="round"/>
<path d="M223.5 189.551L223.5 117.758" stroke="#4F4F4F" stroke-width="4" stroke-linecap="round"/>
<path d="M184.509 189.551L184.509 148.084" stroke="#4F4F4F" stroke-width="4" stroke-linecap="round"/>
<path d="M150.47 189.551L150.47 172.84" stroke="#4F4F4F" stroke-width="4" stroke-linecap="round"/>
</svg>
