<svg width="281" height="190" viewBox="0 0 281 190" fill="none" xmlns="http://www.w3.org/2000/svg">
<path d="M134.599 0.375C123.062 0.375 111.875 1.86083 101.211 4.39552L106.456 26.1587C115.545 23.9736 124.985 22.75 134.599 22.75C164.928 22.75 192.459 33.8501 213.873 51.9424L190.537 67.5L257.662 89.875V22.75L233.276 39.0068C207.318 15.0586 172.619 0.375 134.599 0.375ZM11.5366 22.75L27.9683 47.3975C3.93261 73.2686 -10.8384 107.792 -10.8384 145.812C-10.8384 157.262 -9.52734 168.362 -6.99268 179.025L14.7705 173.956C12.6728 164.954 11.5366 155.514 11.5366 145.812C11.5366 115.484 22.5493 87.9522 40.729 66.5386L56.2866 89.875L78.6616 22.75H11.5366ZM276.191 112.425L254.428 117.494C256.525 126.584 257.662 136.023 257.662 145.812C257.662 176.141 246.562 203.673 228.469 225.086L212.912 201.75L190.537 268.875H257.662L241.405 244.49C265.353 218.531 280.037 183.833 280.037 145.812C280.037 134.363 278.726 123.088 276.191 112.425ZM11.5366 201.75V268.875L36.0093 252.531C61.9678 276.566 96.5791 291.25 134.599 291.25C146.049 291.25 157.236 289.939 167.987 287.404L162.83 265.641C153.74 267.739 144.301 268.875 134.599 268.875C104.271 268.875 76.6514 257.862 55.2378 239.77L78.6616 224.125L11.5366 201.75Z" fill="#898989"/>
</svg>
