<svg width="20" height="20" viewBox="0 0 60 60" fill="none" xmlns="http://www.w3.org/2000/svg">
<g id="reshot-icon-v-kontakte-8HFZE5N4XP 1" clip-path="url(#clip0_67_333)">
<path id="Vector" fill-rule="evenodd" clip-rule="evenodd" d="M53.1155 29.7797C51.9361 31.2731 50.7173 32.8181 50.6883 33.2728C50.7858 33.6281 51.9605 34.6959 53.0995 35.73L53.2289 35.8481C56.1399 38.4928 58.2455 40.7522 59.2542 42.5615C60.3642 44.369 60.0867 45.75 59.662 46.5478C58.6599 48.4134 56.1933 48.7144 55.7095 48.7434C55.7095 48.7434 49.4039 48.7528 47.5645 48.7603C46.7142 48.7434 45.112 48.5259 43.2802 47.294C41.9733 46.4147 40.8164 45.1153 39.6989 43.8581C39.0061 43.0791 38.078 41.2716 37.537 41.2716C36.5011 41.2716 35.662 40.4325 35.662 39.3966C35.662 38.3606 36.5011 37.5216 37.537 37.5216C37.6739 37.5216 37.808 37.5375 37.9355 37.5675C39.7214 37.7916 40.9402 39.4584 42.5245 41.2378C43.4902 42.3216 44.4877 43.6491 45.4036 44.265C46.7011 45.1387 47.6189 45.0469 47.7811 45.0262L47.9489 45.0506L55.5042 45.015C55.7377 44.9925 56.0245 44.9212 56.2205 44.8462C56.1867 44.7665 56.1333 44.6053 56.0545 44.4778L55.9655 44.3231C55.1714 42.9047 53.2214 40.8506 50.6808 38.5416L50.5514 38.4234C45.638 33.9572 45.9192 32.8912 50.1483 27.5325C50.7005 26.8322 51.338 26.0278 52.0505 25.0931C54.9342 21.3272 55.9139 19.5459 56.1689 18.7641C55.8689 18.7416 55.3852 18.7687 55.3373 18.7753L55.132 18.7594L46.5389 18.7519L46.5342 18.75C46.2802 19.3997 45.0005 22.6406 43.3158 25.4428C39.5002 31.7906 38.6564 32.8434 37.2183 32.8434C36.7158 32.8434 35.993 32.7028 35.5749 32.4384C33.488 31.1166 33.7111 28.2431 33.7702 26.0775C33.7533 26.7075 33.7674 23.0522 33.7655 21.0075C33.7655 19.425 33.8724 17.6578 33.6014 17.3325C33.6014 17.3325 33.5245 17.2669 33.247 17.2003C32.4839 17.0166 32.017 16.8909 29.7202 16.8909C29.3152 16.8909 28.5698 16.8844 28.0673 16.8844C27.2995 16.8844 25.8595 16.8544 24.6492 17.0044C24.7739 17.1347 24.8948 17.2753 25.0064 17.4272C26.1352 18.9544 26.1811 21.5841 26.1792 22.2797C26.5514 27.8409 25.8633 31.155 24.067 32.13C23.6133 32.3756 23.0348 32.8322 22.5352 32.8322C20.4511 32.8322 18.4308 30.8728 15.172 25.3566C13.4039 22.3612 12.0886 19.1766 12.0333 19.0406C12.022 19.0191 11.9602 18.9225 11.9292 18.8887C11.8861 18.8616 11.7267 18.8044 11.5814 18.7659L4.05704 18.7566C5.2561 21.3891 10.8014 33.1387 16.8314 39.2906C21.2864 43.8366 26.1586 44.7834 28.2614 44.9728C29.2495 45.0281 30.0361 45.8362 30.0361 46.8366C30.0361 47.8716 29.1961 48.7116 28.1611 48.7116C28.0908 48.7116 28.027 48.6975 27.9586 48.6909C25.1573 48.4434 19.3974 47.2144 14.1267 41.8359C6.84798 34.4109 0.600476 20.1366 0.339851 19.5337C0.131726 19.0003 -0.363274 17.4131 0.659538 16.2253C1.55016 15.1931 3.07548 15.0431 3.69141 15.0272L11.9302 15.0319L12.0895 14.9981C12.2892 15.0319 13.3327 15.285 14.1886 15.9028C15.0005 16.4869 15.4073 17.3597 15.5142 17.6119C15.532 17.6625 16.793 20.7637 18.4186 23.5162C20.2617 26.6391 21.6577 27.7125 22.253 28.3331C22.5117 27.0778 22.612 24.6647 22.462 22.4625L22.4573 22.3894L22.4602 22.3144C22.4667 21.3647 22.5014 20.0147 22.2211 19.6378C22.057 19.4175 21.5414 19.2056 20.9902 19.1334C20.092 19.0125 18.997 18.3375 18.8217 17.4675C18.4261 15.495 20.5589 14.5762 21.6652 14.0381C23.4333 13.1766 26.3442 13.0997 29.7605 13.1334C32.2195 13.1606 33.0511 13.3172 34.1292 13.5769C37.7583 14.4478 37.5145 17.0569 37.5145 20.6587C37.5145 22.8206 37.4986 26.9259 37.522 26.1797C37.5052 26.7572 37.4761 27.2822 37.5623 27.9872C38.2017 27.33 38.3742 26.4281 40.0852 23.5828C41.767 20.7825 43.0561 17.3522 43.0702 17.3184L43.1217 17.1956C43.2473 16.9275 43.7245 16.0162 44.6086 15.4997C45.4364 15.0131 46.3655 15.0206 46.7498 15.0506L55.0195 15.0281C55.1761 15.0141 55.4761 14.9916 55.8399 14.9916C58.658 14.9916 59.5533 16.3556 59.8383 17.1328C60.3633 18.5616 60.0427 20.7825 55.0524 27.3009C54.322 28.2478 53.677 29.0653 53.1155 29.7797ZM47.5636 48.7594C47.5945 48.7594 47.6339 48.7612 47.663 48.7612C46.8183 48.7612 46.9317 48.7612 47.5636 48.7594ZM35.6611 45.0197C36.6961 45.0197 37.5361 45.8587 37.5361 46.8947C37.5361 47.9306 36.6961 48.7697 35.6611 48.7697C34.6252 48.7697 33.7861 47.9306 33.7861 46.8947C33.7861 45.8587 34.6252 45.0197 35.6611 45.0197Z" fill="#FAFAFA"/>
</g>
<defs>
<clipPath id="clip0_67_333">
<rect width="60" height="60" fill="white" transform="translate(0.0351562)"/>
</clipPath>
</defs>
</svg>
