<svg width="412" height="194" viewBox="0 0 412 194" fill="none" xmlns="http://www.w3.org/2000/svg">
<line opacity="0.5" x1="29.3066" y1="162.533" x2="412.611" y2="162.533" stroke="#0B1739" stroke-width="0.563113"/>
<line opacity="0.5" x1="29.3062" y1="122.117" x2="412.611" y2="122.117" stroke="#0B1739" stroke-width="0.563113"/>
<line opacity="0.5" x1="29.3062" y1="81.2077" x2="412.611" y2="81.2077" stroke="#0B1739" stroke-width="0.563113"/>
<line opacity="0.5" x1="29.3062" y1="41.5483" x2="412.611" y2="41.5482" stroke="#0B1739" stroke-width="0.563113"/>
<line opacity="0.5" x1="29.3062" y1="1.21844" x2="412.611" y2="1.21841" stroke="#0B1739" stroke-width="0.563113"/>
<path opacity="0.2" d="M104.651 213.896C71.2364 215.681 64.8223 149.548 28.1548 188.975V242.762H412.611V133.927C331.606 212.409 322.045 65.3197 278.822 65.3193C236.781 65.319 246.506 184.779 197.759 146.945C144.796 105.838 146.419 211.664 104.651 213.896Z" fill="url(#paint0_linear_89_2910)"/>
<path d="M28.1548 188.975C64.8223 149.548 71.2364 215.681 104.651 213.896C146.419 211.664 144.796 105.838 197.759 146.945C246.506 184.78 236.781 65.319 278.822 65.3193C322.045 65.3197 331.606 212.409 412.611 133.927" stroke="#00C2CB" stroke-width="0.703891" stroke-linecap="round"/>
<path opacity="0.2" d="M106.252 192.554C87.4582 227.193 46.3564 240.459 28.1548 242.762H412.611V17.5171C316.735 17.5171 282.131 122.079 214.51 117.473C146.889 112.866 129.745 149.256 106.252 192.554Z" fill="url(#paint1_linear_89_2910)"/>
<path d="M28.1548 242.762C46.3564 240.459 87.4582 227.193 106.252 192.554C129.745 149.256 146.889 112.866 214.51 117.473C282.131 122.079 316.735 17.5171 412.611 17.5171" stroke="#8B78FD" stroke-width="0.703891" stroke-linecap="round"/>
<circle cx="4.57529" cy="4.57529" r="4.22335" transform="matrix(-1 0 0 1 200.198 112.45)" fill="#0B1739" stroke="#8B78FD" stroke-width="0.703891"/>
<circle cx="412.173" cy="17.6162" r="1.75973" fill="#8B78FD"/>
<circle cx="412.173" cy="134.11" r="1.75973" fill="#00C2CB"/>
<rect x="144.08" y="55.3535" width="102.381" height="44.7007" rx="5.63113" fill="#0B1739"/>
<g filter="url(#filter0_d_89_2910)">
<rect x="144.08" y="55.3535" width="102.381" height="44.7007" rx="5.63113" fill="#0B1739"/>
<rect x="144.291" y="55.5647" width="101.959" height="44.2783" rx="5.41996" stroke="#0B1739" stroke-width="0.422335"/>
</g>
<path d="M157.369 88.1737L159.185 86.245C159.335 86.0855 159.457 85.9424 159.551 85.8157C159.645 85.689 159.713 85.5693 159.755 85.4567C159.797 85.3441 159.819 85.2291 159.819 85.1118C159.819 84.8912 159.746 84.7199 159.6 84.5979C159.46 84.4712 159.279 84.4079 159.058 84.4079C158.824 84.4079 158.617 84.4665 158.439 84.5839C158.261 84.7012 158.101 84.8842 157.96 85.1329L157.397 84.6683C157.59 84.3351 157.826 84.0841 158.108 83.9152C158.39 83.7415 158.716 83.6547 159.086 83.6547C159.391 83.6547 159.659 83.7157 159.889 83.8377C160.119 83.9597 160.297 84.131 160.424 84.3516C160.551 84.5674 160.614 84.8185 160.614 85.1047C160.614 85.3112 160.588 85.4966 160.536 85.6608C160.49 85.8204 160.407 85.9822 160.29 86.1465C160.173 86.306 160.011 86.4937 159.804 86.7096L158.411 88.1526L157.369 88.1737ZM157.369 88.6523V88.1737L158.066 87.9273H160.712V88.6523H157.369ZM163.296 88.7227C162.925 88.7227 162.585 88.6195 162.275 88.413C161.97 88.2019 161.726 87.9062 161.543 87.5261C161.36 87.146 161.269 86.6979 161.269 86.1817C161.269 85.6655 161.358 85.2197 161.536 84.8443C161.719 84.4642 161.963 84.1709 162.268 83.9644C162.573 83.758 162.911 83.6547 163.282 83.6547C163.657 83.6547 163.997 83.758 164.302 83.9644C164.607 84.1709 164.849 84.4642 165.027 84.8443C165.21 85.2197 165.302 85.6678 165.302 86.1887C165.302 86.7049 165.21 87.1531 165.027 87.5332C164.849 87.9133 164.607 88.2065 164.302 88.413C164.002 88.6195 163.667 88.7227 163.296 88.7227ZM163.282 87.9625C163.526 87.9625 163.737 87.8968 163.915 87.7654C164.094 87.634 164.232 87.437 164.331 87.1742C164.434 86.9114 164.485 86.5806 164.485 86.1817C164.485 85.7875 164.434 85.459 164.331 85.1962C164.232 84.9335 164.091 84.7387 163.908 84.612C163.73 84.4806 163.521 84.4149 163.282 84.4149C163.042 84.4149 162.831 84.4806 162.648 84.612C162.47 84.7387 162.332 84.9335 162.233 85.1962C162.134 85.4543 162.085 85.7828 162.085 86.1817C162.085 86.5806 162.134 86.9114 162.233 87.1742C162.332 87.437 162.47 87.634 162.648 87.7654C162.831 87.8968 163.042 87.9625 163.282 87.9625ZM165.79 88.1737L167.606 86.245C167.756 86.0855 167.878 85.9424 167.972 85.8157C168.065 85.689 168.133 85.5693 168.176 85.4567C168.218 85.3441 168.239 85.2291 168.239 85.1118C168.239 84.8912 168.166 84.7199 168.021 84.5979C167.88 84.4712 167.699 84.4079 167.479 84.4079C167.244 84.4079 167.038 84.4665 166.859 84.5839C166.681 84.7012 166.522 84.8842 166.381 85.1329L165.818 84.6683C166.01 84.3351 166.247 84.0841 166.529 83.9152C166.81 83.7415 167.136 83.6547 167.507 83.6547C167.812 83.6547 168.08 83.7157 168.309 83.8377C168.539 83.9597 168.718 84.131 168.844 84.3516C168.971 84.5674 169.034 84.8185 169.034 85.1047C169.034 85.3112 169.009 85.4966 168.957 85.6608C168.91 85.8204 168.828 85.9822 168.711 86.1465C168.593 86.306 168.431 86.4937 168.225 86.7096L166.831 88.1526L165.79 88.1737ZM165.79 88.6523V88.1737L166.486 87.9273H169.133V88.6523H165.79ZM171.139 88.7227C170.797 88.7227 170.492 88.6641 170.224 88.5468C169.957 88.4248 169.731 88.2488 169.548 88.0188L170.097 87.4698C170.196 87.62 170.334 87.7396 170.513 87.8288C170.696 87.918 170.9 87.9625 171.125 87.9625C171.332 87.9625 171.512 87.925 171.667 87.8499C171.822 87.7748 171.944 87.6669 172.033 87.5261C172.122 87.3853 172.167 87.2188 172.167 87.0264C172.167 86.8246 172.122 86.658 172.033 86.5266C171.949 86.3905 171.834 86.2896 171.688 86.2239C171.547 86.1535 171.395 86.1183 171.231 86.1183C171.043 86.1183 170.874 86.1395 170.724 86.1817C170.578 86.2239 170.435 86.299 170.295 86.4069L170.316 85.9001C170.391 85.8016 170.478 85.7218 170.576 85.6608C170.675 85.5951 170.79 85.5458 170.921 85.513C171.052 85.4801 171.207 85.4637 171.386 85.4637C171.733 85.4637 172.024 85.5365 172.258 85.6819C172.498 85.8274 172.678 86.0221 172.8 86.2662C172.922 86.5055 172.983 86.773 172.983 87.0686C172.983 87.3877 172.904 87.6716 172.744 87.9203C172.589 88.169 172.373 88.3661 172.097 88.5116C171.82 88.6523 171.501 88.7227 171.139 88.7227ZM170.295 86.4069L169.851 85.9635L170.069 83.7251H170.808L170.555 86.055L170.295 86.4069ZM170.21 84.4501L170.069 83.7251H172.709V84.4501H170.21Z" fill="#D0C7FF"/>
<path d="M160.994 75.8477C160.454 75.8477 159.943 75.7426 159.463 75.5324C158.982 75.3222 158.562 75.0331 158.201 74.6652C157.841 74.2898 157.556 73.8581 157.345 73.37C157.143 72.8745 157.041 72.3452 157.041 71.7821C157.041 71.2189 157.143 70.6934 157.345 70.2053C157.556 69.7173 157.841 69.2893 158.201 68.9214C158.569 68.546 158.997 68.257 159.485 68.0542C159.981 67.844 160.514 67.7389 161.084 67.7389C161.708 67.7389 162.286 67.859 162.819 68.0993C163.352 68.3396 163.799 68.6812 164.159 69.1242L163.281 70.0026C163.048 69.6723 162.736 69.4207 162.346 69.248C161.955 69.0679 161.535 68.9778 161.084 68.9778C160.544 68.9778 160.067 69.0979 159.654 69.3381C159.249 69.5709 158.933 69.8975 158.708 70.318C158.483 70.7384 158.37 71.2264 158.37 71.7821C158.37 72.3377 158.483 72.8294 158.708 73.2574C158.941 73.6779 159.252 74.0082 159.643 74.2485C160.033 74.4888 160.476 74.6089 160.972 74.6089C161.497 74.6089 161.948 74.515 162.323 74.3273C162.706 74.1321 162.999 73.8468 163.202 73.4714C163.405 73.0885 163.506 72.6192 163.506 72.0636L164.317 72.6492H160.949V71.4667H164.846V71.6469C164.846 72.5854 164.677 73.3663 164.339 73.9895C164.009 74.6126 163.555 75.0781 162.977 75.386C162.398 75.6938 161.738 75.8477 160.994 75.8477ZM165.966 75.7351V70.3292H167.205V75.7351H165.966ZM167.205 72.7281L166.777 72.5141C166.777 71.8309 166.927 71.279 167.228 70.8585C167.535 70.4306 167.997 70.2166 168.613 70.2166C168.883 70.2166 169.127 70.2654 169.345 70.363C169.563 70.4606 169.765 70.6183 169.953 70.836L169.142 71.6694C169.045 71.5643 168.936 71.4892 168.816 71.4442C168.695 71.3991 168.557 71.3766 168.399 71.3766C168.054 71.3766 167.768 71.4855 167.543 71.7032C167.318 71.921 167.205 72.2626 167.205 72.7281ZM172.865 75.8477C172.34 75.8477 171.863 75.7238 171.435 75.4761C171.007 75.2208 170.665 74.8792 170.41 74.4512C170.162 74.0232 170.038 73.5465 170.038 73.0209C170.038 72.4953 170.162 72.0223 170.41 71.6019C170.665 71.1814 171.007 70.8473 171.435 70.5995C171.863 70.3442 172.34 70.2166 172.865 70.2166C173.398 70.2166 173.879 70.3405 174.307 70.5883C174.735 70.836 175.073 71.1739 175.32 71.6019C175.576 72.0223 175.703 72.4953 175.703 73.0209C175.703 73.5465 175.576 74.0232 175.32 74.4512C175.073 74.8792 174.735 75.2208 174.307 75.4761C173.879 75.7238 173.398 75.8477 172.865 75.8477ZM172.865 74.6539C173.173 74.6539 173.443 74.5864 173.676 74.4512C173.916 74.3086 174.1 74.1133 174.228 73.8656C174.363 73.6178 174.431 73.3362 174.431 73.0209C174.431 72.7056 174.363 72.4278 174.228 72.1875C174.093 71.9472 173.909 71.7595 173.676 71.6244C173.443 71.4817 173.173 71.4104 172.865 71.4104C172.565 71.4104 172.295 71.4817 172.054 71.6244C171.822 71.7595 171.638 71.9472 171.503 72.1875C171.375 72.4278 171.311 72.7056 171.311 73.0209C171.311 73.3362 171.375 73.6178 171.503 73.8656C171.638 74.1133 171.822 74.3086 172.054 74.4512C172.295 74.5864 172.565 74.6539 172.865 74.6539ZM178.178 75.7351L176.005 70.3292H177.289L178.753 74.2598L178.37 74.271L179.8 70.3292H180.521L181.951 74.271L181.568 74.2598L183.032 70.3292H184.316L182.143 75.7351H181.422L179.958 71.996H180.363L178.899 75.7351H178.178ZM185.914 75.7351V68.0768H187.153V75.7351H185.914ZM184.619 71.4554V70.3292H188.448V71.4554H184.619ZM193.054 75.7351V72.6155C193.054 72.2551 192.938 71.9585 192.705 71.7257C192.48 71.493 192.187 71.3766 191.826 71.3766C191.586 71.3766 191.372 71.4292 191.184 71.5343C190.997 71.6394 190.85 71.7858 190.745 71.9735C190.64 72.1612 190.587 72.3752 190.587 72.6155L190.103 72.3452C190.103 71.9322 190.193 71.5681 190.373 71.2527C190.554 70.9299 190.801 70.6784 191.117 70.4982C191.44 70.3105 191.8 70.2166 192.198 70.2166C192.603 70.2166 192.964 70.3067 193.279 70.4869C193.594 70.6671 193.842 70.9186 194.022 71.2415C194.203 71.5568 194.293 71.9247 194.293 72.3452V75.7351H193.054ZM189.349 75.7351V67.6263H190.587V75.7351H189.349Z" fill="#FAFAFA"/>
<rect x="199.803" y="62.8274" width="36.67" height="16.8156" rx="1.40778" fill="#05C168" fill-opacity="0.2"/>
<rect x="200.014" y="63.0386" width="36.2477" height="16.3932" rx="1.19661" stroke="#05C168" stroke-opacity="0.2" stroke-width="0.422335"/>
<path d="M204.278 75.2351V68.2351H205.408V75.2351H204.278ZM202.878 69.2651V68.2351H205.308V69.2651H202.878ZM206.453 74.5551L209.033 71.8151C209.246 71.5884 209.42 71.3851 209.553 71.2051C209.686 71.0251 209.783 70.8551 209.843 70.6951C209.903 70.5351 209.933 70.3718 209.933 70.2051C209.933 69.8918 209.83 69.6484 209.623 69.4751C209.423 69.2951 209.166 69.2051 208.853 69.2051C208.52 69.2051 208.226 69.2884 207.973 69.4551C207.72 69.6218 207.493 69.8818 207.293 70.2351L206.493 69.5751C206.766 69.1018 207.103 68.7451 207.503 68.5051C207.903 68.2584 208.366 68.1351 208.893 68.1351C209.326 68.1351 209.706 68.2218 210.033 68.3951C210.36 68.5684 210.613 68.8118 210.793 69.1251C210.973 69.4318 211.063 69.7884 211.063 70.1951C211.063 70.4884 211.026 70.7518 210.953 70.9851C210.886 71.2118 210.77 71.4418 210.603 71.6751C210.436 71.9018 210.206 72.1684 209.913 72.4751L207.933 74.5251L206.453 74.5551ZM206.453 75.2351V74.5551L207.443 74.2051H211.203V75.2351H206.453ZM213.033 75.3351C212.82 75.3351 212.643 75.2651 212.503 75.1251C212.37 74.9784 212.303 74.8018 212.303 74.5951C212.303 74.3818 212.37 74.2051 212.503 74.0651C212.643 73.9251 212.82 73.8551 213.033 73.8551C213.246 73.8551 213.42 73.9251 213.553 74.0651C213.693 74.2051 213.763 74.3818 213.763 74.5951C213.763 74.8018 213.693 74.9784 213.553 75.1251C213.42 75.2651 213.246 75.3351 213.033 75.3351ZM216.953 75.3351C216.467 75.3351 216.033 75.2518 215.653 75.0851C215.273 74.9118 214.953 74.6618 214.693 74.3351L215.473 73.5551C215.613 73.7684 215.81 73.9384 216.063 74.0651C216.323 74.1918 216.613 74.2551 216.933 74.2551C217.227 74.2551 217.483 74.2018 217.703 74.0951C217.923 73.9884 218.097 73.8351 218.223 73.6351C218.35 73.4351 218.413 73.1984 218.413 72.9251C218.413 72.6384 218.35 72.4018 218.223 72.2151C218.103 72.0218 217.94 71.8784 217.733 71.7851C217.533 71.6851 217.317 71.6351 217.083 71.6351C216.817 71.6351 216.577 71.6651 216.363 71.7251C216.157 71.7851 215.953 71.8918 215.753 72.0451L215.783 71.3251C215.89 71.1851 216.013 71.0718 216.153 70.9851C216.293 70.8918 216.457 70.8218 216.643 70.7751C216.83 70.7284 217.05 70.7051 217.303 70.7051C217.797 70.7051 218.21 70.8084 218.543 71.0151C218.883 71.2218 219.14 71.4984 219.313 71.8451C219.487 72.1851 219.573 72.5651 219.573 72.9851C219.573 73.4384 219.46 73.8418 219.233 74.1951C219.013 74.5484 218.707 74.8284 218.313 75.0351C217.92 75.2351 217.467 75.3351 216.953 75.3351ZM215.753 72.0451L215.123 71.4151L215.433 68.2351H216.483L216.123 71.5451L215.753 72.0451ZM215.633 69.2651L215.433 68.2351H219.183V69.2651H215.633ZM220.433 75.2351L224.923 68.2351H226.013L221.523 75.2351H220.433ZM224.683 75.3351C224.423 75.3351 224.183 75.2718 223.963 75.1451C223.749 75.0184 223.579 74.8484 223.453 74.6351C223.326 74.4218 223.263 74.1818 223.263 73.9151C223.263 73.6484 223.326 73.4118 223.453 73.2051C223.579 72.9918 223.749 72.8218 223.963 72.6951C224.176 72.5684 224.416 72.5051 224.683 72.5051C224.949 72.5051 225.189 72.5684 225.403 72.6951C225.623 72.8218 225.796 72.9918 225.923 73.2051C226.049 73.4118 226.113 73.6484 226.113 73.9151C226.113 74.1818 226.049 74.4218 225.923 74.6351C225.796 74.8484 225.626 75.0184 225.413 75.1451C225.199 75.2718 224.956 75.3351 224.683 75.3351ZM224.683 74.4851C224.849 74.4851 224.983 74.4318 225.083 74.3251C225.189 74.2184 225.243 74.0818 225.243 73.9151C225.243 73.7551 225.189 73.6218 225.083 73.5151C224.976 73.4084 224.843 73.3551 224.683 73.3551C224.523 73.3551 224.393 73.4084 224.293 73.5151C224.193 73.6218 224.143 73.7551 224.143 73.9151C224.143 74.0818 224.193 74.2184 224.293 74.3251C224.393 74.4318 224.523 74.4851 224.683 74.4851ZM221.753 70.9651C221.493 70.9651 221.253 70.9018 221.033 70.7751C220.819 70.6484 220.649 70.4784 220.523 70.2651C220.396 70.0518 220.333 69.8118 220.333 69.5451C220.333 69.2784 220.396 69.0418 220.523 68.8351C220.649 68.6218 220.819 68.4518 221.033 68.3251C221.246 68.1984 221.486 68.1351 221.753 68.1351C222.019 68.1351 222.259 68.1984 222.473 68.3251C222.693 68.4518 222.866 68.6218 222.993 68.8351C223.119 69.0418 223.183 69.2784 223.183 69.5451C223.183 69.8118 223.119 70.0518 222.993 70.2651C222.866 70.4784 222.696 70.6484 222.483 70.7751C222.269 70.9018 222.026 70.9651 221.753 70.9651ZM221.753 70.1151C221.919 70.1151 222.053 70.0618 222.153 69.9551C222.253 69.8484 222.303 69.7118 222.303 69.5451C222.303 69.3784 222.249 69.2451 222.143 69.1451C222.043 69.0384 221.913 68.9851 221.753 68.9851C221.593 68.9851 221.463 69.0384 221.363 69.1451C221.263 69.2451 221.213 69.3784 221.213 69.5451C221.213 69.7118 221.263 69.8484 221.363 69.9551C221.463 70.0618 221.593 70.1151 221.753 70.1151Z" fill="#14CA74"/>
<g clip-path="url(#clip0_89_2910)">
<path d="M228.965 73.1121L232.719 69.358" stroke="#14CA74" stroke-width="0.563113" stroke-linecap="round" stroke-linejoin="round"/>
<path d="M232.719 72.8975V69.3581H229.179" stroke="#14CA74" stroke-width="0.563113" stroke-linecap="round" stroke-linejoin="round"/>
</g>
<defs>
<filter id="filter0_d_89_2910" x="134.225" y="46.2029" width="126.314" height="68.633" filterUnits="userSpaceOnUse" color-interpolation-filters="sRGB">
<feFlood flood-opacity="0" result="BackgroundImageFix"/>
<feColorMatrix in="SourceAlpha" type="matrix" values="0 0 0 0 0 0 0 0 0 0 0 0 0 0 0 0 0 0 127 0" result="hardAlpha"/>
<feOffset dx="2.11167" dy="2.81556"/>
<feGaussianBlur stdDeviation="5.98308"/>
<feComposite in2="hardAlpha" operator="out"/>
<feColorMatrix type="matrix" values="0 0 0 0 0.00527778 0 0 0 0 0.0200958 0 0 0 0 0.0666667 0 0 0 0.2 0"/>
<feBlend mode="normal" in2="BackgroundImageFix" result="effect1_dropShadow_89_2910"/>
<feBlend mode="normal" in="SourceGraphic" in2="effect1_dropShadow_89_2910" result="shape"/>
</filter>
<linearGradient id="paint0_linear_89_2910" x1="220.383" y1="65.3193" x2="220.383" y2="242.762" gradientUnits="userSpaceOnUse">
<stop stop-color="#57C3FF"/>
<stop offset="1" stop-color="#57C3FF" stop-opacity="0"/>
</linearGradient>
<linearGradient id="paint1_linear_89_2910" x1="220.383" y1="17.5171" x2="220.383" y2="242.762" gradientUnits="userSpaceOnUse">
<stop stop-color="#575DFF"/>
<stop offset="1" stop-color="#575DFF" stop-opacity="0"/>
</linearGradient>
<clipPath id="clip0_89_2910">
<rect width="5.63113" height="5.63113" fill="white" transform="translate(228.026 68.4194)"/>
</clipPath>
</defs>
</svg>
