<svg
                  width="160"
                  height="150"
                  viewBox="0 0 260 244"
                  fill="none"
                  xmlns="http://www.w3.org/2000/svg"
                  className="w-full/2 h-auto"
                >
                  <path
                    d="M234.339 68.7329C252.023 95.4508 260.92 127.054 259.782 159.105C258.644 191.156 247.526 222.043 227.992 247.431C208.457 272.818 181.487 291.428 150.868 300.649C120.249 309.87 87.5203 309.238 57.2784 298.841C27.0364 288.443 0.800644 268.805 -17.7442 242.681C-36.2902 216.559 -46.2135 185.265 -46.1204 153.193C-46.0284 121.123 -35.9247 89.886 -17.2282 63.8715C1.46834 37.8571 27.8176 18.3708 58.1193 8.15072L106.879 153.639L234.339 68.7329Z"
                    fill="#272727"
                  />
                  <path
                    d="M58.1192 8.14844C90.0441 -2.62043 124.618 -2.51979 156.48 8.43361C188.341 19.3882 215.71 40.5821 234.34 68.7307L106.88 153.637L58.1192 8.14844Z"
                    fill="#696969"
                  />
                </svg>