<svg width="200" height="197" viewBox="0 0 200 180" fill="none" xmlns="http://www.w3.org/2000/svg">
<path d="M75.5141 19.4776C102.443 4.27144 133.459 -2.11774 164.206 1.20729C194.952 4.53223 223.884 17.4054 246.94 38.0167C269.995 58.6291 286.014 85.9449 292.749 116.128C299.483 146.312 296.594 177.847 284.486 206.304C272.379 234.762 251.662 258.711 225.245 274.79C198.828 290.869 168.039 298.27 137.199 295.952C106.361 293.635 77.0222 281.716 53.3051 261.869C29.588 242.022 12.6829 215.245 4.9654 185.298L148.291 148.359L75.5141 19.4776Z" fill="#272727"/>
<path d="M4.9632 185.298C-3.16902 153.746 -0.662519 120.394 12.0929 90.4125C24.8495 60.4313 47.1407 35.4971 75.512 19.4764L148.289 148.358L4.9632 185.298Z" fill="#696969"/>
</svg>
