<svg width="316" height="233" viewBox="0 0 316 433" fill="none" xmlns="http://www.w3.org/2000/svg">
<path fill-rule="evenodd" clip-rule="evenodd" d="M388.138 0.446331C389.219 0.863471 389.757 2.07769 389.34 3.15836L379.511 28.6205L361.91 99.3534L329.205 128.06L302.161 186.542L265.267 214.3L223.951 265.749L174.842 296.145L148.801 305.039L119.462 324.471L92.7287 347.141L59.7645 363.143L20.2407 404.903L-12.021 457.289L-63.7444 496.501C-64.6675 497.201 -65.9831 497.02 -66.683 496.097C-67.3828 495.174 -67.2018 493.858 -66.2787 493.158L-15.181 454.421L16.8962 402.334L57.2439 359.703L90.4199 343.598L116.938 321.111L146.935 301.243L173.038 292.329L221.131 262.561L262.325 211.264L298.797 183.824L325.77 125.493L358.156 97.0666L375.504 27.3539L385.426 1.64776C385.843 0.567092 387.057 0.0291919 388.138 0.446331Z" fill="#00C2CB"/>
<path fill-rule="evenodd" clip-rule="evenodd" d="M443.567 179.648C444.552 180.258 444.856 181.55 444.246 182.535L432.138 202.094L405.531 226.271L370.79 243.901L344.703 269.081L299.598 296.751L260.513 322.99L260.506 322.994L218.736 350.818L165.113 369.13L146.668 377.386L108.93 397.281L63.9597 416.059L23.9944 440.679L-13.0822 470.382L-68.4117 498.188C-69.4467 498.709 -70.7074 498.291 -71.2276 497.256C-71.7478 496.221 -71.3304 494.96 -70.2953 494.44L-15.3604 466.832L21.5738 437.243L62.0397 412.315L107.14 393.483L144.831 373.613L163.575 365.223L216.864 347.024L258.181 319.503L297.331 293.221L342.119 265.745L368.33 240.446L403.129 222.786L428.881 199.386L440.679 180.327C441.289 179.342 442.582 179.038 443.567 179.648Z" fill="#8B78FD"/>
<path fill-rule="evenodd" clip-rule="evenodd" d="M465.691 232.909C466.552 233.684 466.623 235.01 465.848 235.871L451.918 251.365L423.401 270.928L387.578 285.82L359.37 306.194L312.382 329.185L271.376 350.869L227.648 373.837L173.372 389.96L154.437 397.03L115.455 413.773L69.514 429.942L27.7791 450.436L-11.6122 474.689L-68.5796 498.173C-69.6505 498.614 -70.8766 498.104 -71.3181 497.033C-71.7596 495.962 -71.2493 494.736 -70.1783 494.295L-13.5235 470.94L25.7503 446.759L67.8876 426.067L113.929 409.863L152.874 393.136L172.039 385.98L226.06 369.932L269.421 347.158L310.479 325.446L357.204 302.584L385.517 282.133L421.388 267.222L449.133 248.189L462.729 233.067C463.503 232.205 464.83 232.135 465.691 232.909Z" fill="#3F328D"/>
<path fill-rule="evenodd" clip-rule="evenodd" d="M429.617 137.411C430.163 138.433 429.776 139.703 428.754 140.249L393.824 158.887L393.776 158.913L361.298 177.338L340.735 217.036L307.121 247.283L273.341 286.563L238.036 306.917L179.36 336.364L143.123 348.739L115.506 374.886L62.3789 397.518L19.2937 430.01L-14.6084 465.235L-68.2574 498.097C-69.2452 498.703 -70.5365 498.392 -71.1416 497.404C-71.7467 496.417 -71.4364 495.125 -70.4486 494.52L-17.258 461.938L16.5021 426.861L60.2628 393.859L113.169 371.322L140.902 345.064L177.734 332.487L236.046 303.222L270.626 283.286L304.116 244.344L337.361 214.428L358.146 174.304L391.777 155.225L426.779 136.548C427.801 136.002 429.072 136.389 429.617 137.411Z" fill="#D0C7FF"/>
<path fill-rule="evenodd" clip-rule="evenodd" d="M485.432 307.257L481.47 308.61L481.223 307.887L485.185 306.534L485.432 307.257ZM473.547 311.316L465.623 314.022L465.376 313.299L473.3 310.593L473.547 311.316ZM457.699 316.728L449.775 319.434L449.528 318.711L457.452 316.005L457.699 316.728ZM441.852 322.14L433.928 324.846L433.681 324.123L441.605 321.417L441.852 322.14ZM426.004 327.552L418.08 330.258L417.833 329.535L425.757 326.829L426.004 327.552ZM410.157 332.964L402.233 335.67L401.986 334.947L409.91 332.241L410.157 332.964ZM394.309 338.376L386.385 341.082L386.138 340.358L394.062 337.652L394.309 338.376ZM378.462 343.787L370.538 346.493L370.291 345.77L378.215 343.064L378.462 343.787ZM362.614 349.199L354.69 351.905L354.443 351.182L362.367 348.476L362.614 349.199ZM346.767 354.611L338.843 357.317L338.596 356.594L346.52 353.888L346.767 354.611ZM330.919 360.023L322.995 362.729L322.748 362.006L330.672 359.3L330.919 360.023ZM315.072 365.435L307.148 368.141L306.901 367.418L314.825 364.712L315.072 365.435ZM299.224 370.847L291.3 373.553L291.053 372.83L298.977 370.124L299.224 370.847ZM283.376 376.259L275.453 378.965L275.206 378.241L283.13 375.535L283.376 376.259ZM267.529 381.67L259.605 384.376L259.358 383.653L267.282 380.947L267.529 381.67ZM251.682 387.082L243.758 389.788L243.511 389.065L251.435 386.359L251.682 387.082ZM235.834 392.494L227.91 395.2L227.663 394.477L235.587 391.771L235.834 392.494ZM219.987 397.906L212.063 400.612L211.816 399.889L219.74 397.183L219.987 397.906ZM204.139 403.318L196.215 406.024L195.968 405.301L203.892 402.595L204.139 403.318ZM188.292 408.73L180.368 411.436L180.121 410.713L188.045 408.007L188.292 408.73ZM172.444 414.142L164.52 416.848L164.273 416.124L172.197 413.418L172.444 414.142ZM156.596 419.554L148.673 422.259L148.426 421.536L156.35 418.83L156.596 419.554ZM140.749 424.965L132.825 427.671L132.578 426.948L140.502 424.242L140.749 424.965ZM124.901 430.377L116.978 433.083L116.731 432.36L124.655 429.654L124.901 430.377ZM109.054 435.789L101.13 438.495L100.883 437.772L108.807 435.066L109.054 435.789ZM93.2065 441.201L85.2827 443.907L85.0357 443.184L92.9595 440.478L93.2065 441.201ZM77.3589 446.613L69.4352 449.319L69.1882 448.596L77.112 445.89L77.3589 446.613ZM61.5114 452.025L53.5876 454.731L53.3407 454.007L61.2645 451.302L61.5114 452.025ZM45.6639 457.437L37.7401 460.143L37.4932 459.419L45.4169 456.713L45.6639 457.437ZM29.8164 462.848L21.8926 465.554L21.6456 464.831L29.5694 462.125L29.8164 462.848ZM13.9688 468.26L6.04508 470.966L5.79813 470.243L13.7219 467.537L13.9688 468.26ZM-1.87868 473.672L-9.80243 476.378L-10.0494 475.655L-2.12563 472.949L-1.87868 473.672ZM-17.7262 479.084L-25.6499 481.79L-25.8969 481.067L-17.9731 478.361L-17.7262 479.084ZM-33.5737 484.496L-41.4975 487.202L-41.7444 486.479L-33.8207 483.773L-33.5737 484.496ZM-49.4212 489.908L-57.345 492.614L-57.5919 491.891L-49.6682 489.185L-49.4212 489.908ZM-65.2687 495.32L-69.2306 496.673L-69.4776 495.949L-65.5157 494.596L-65.2687 495.32Z" fill="#3F328D"/>
<path d="M228.34 247.874H188.67" stroke="#FAFAFA"/>
<path d="M89.4297 253.974L94.5297 248.654C95.1163 248.028 95.5697 247.501 95.8897 247.074C96.223 246.648 96.4497 246.261 96.5697 245.914C96.703 245.554 96.7697 245.181 96.7697 244.794C96.7697 244.008 96.523 243.394 96.0297 242.954C95.5363 242.501 94.883 242.274 94.0697 242.274C93.323 242.274 92.6697 242.454 92.1097 242.814C91.5497 243.161 91.0497 243.688 90.6097 244.394L89.5897 243.494C90.123 242.654 90.763 242.014 91.5097 241.574C92.2563 241.134 93.123 240.914 94.1097 240.914C94.9363 240.914 95.6563 241.074 96.2697 241.394C96.8963 241.714 97.3763 242.168 97.7097 242.754C98.0563 243.341 98.2297 244.028 98.2297 244.814C98.2297 245.361 98.1563 245.861 98.0097 246.314C97.863 246.754 97.603 247.221 97.2297 247.714C96.8697 248.194 96.3563 248.781 95.6897 249.474L91.3697 253.914L89.4297 253.974ZM89.4297 254.874V253.974L90.6297 253.554H98.5697V254.874H89.4297ZM104.71 255.074C103.83 255.074 103.03 254.868 102.31 254.454C101.604 254.028 101.037 253.461 100.61 252.754C100.197 252.048 99.9905 251.261 99.9905 250.394C99.9905 249.221 100.397 248.074 101.21 246.954L105.53 241.114H107.25L102.97 246.774L102.45 246.974C102.637 246.734 102.85 246.534 103.09 246.374C103.344 246.201 103.63 246.068 103.95 245.974C104.27 245.881 104.637 245.834 105.05 245.834C105.864 245.834 106.604 246.034 107.27 246.434C107.937 246.821 108.47 247.354 108.87 248.034C109.27 248.714 109.47 249.488 109.47 250.354C109.47 251.221 109.257 252.014 108.83 252.734C108.404 253.441 107.83 254.008 107.11 254.434C106.39 254.861 105.59 255.074 104.71 255.074ZM104.73 253.714C105.33 253.714 105.877 253.568 106.37 253.274C106.877 252.968 107.277 252.561 107.57 252.054C107.864 251.534 108.01 250.968 108.01 250.354C108.01 249.728 107.864 249.161 107.57 248.654C107.277 248.148 106.877 247.748 106.37 247.454C105.877 247.148 105.33 246.994 104.73 246.994C104.117 246.994 103.557 247.148 103.05 247.454C102.557 247.748 102.164 248.148 101.87 248.654C101.59 249.148 101.45 249.714 101.45 250.354C101.45 250.981 101.59 251.554 101.87 252.074C102.164 252.581 102.557 252.981 103.05 253.274C103.557 253.568 104.117 253.714 104.73 253.714ZM111.459 254.874L120.299 241.114H121.739L112.919 254.874H111.459ZM119.239 255.074C118.732 255.074 118.266 254.954 117.839 254.714C117.412 254.461 117.072 254.121 116.819 253.694C116.566 253.268 116.439 252.794 116.439 252.274C116.439 251.754 116.566 251.288 116.819 250.874C117.072 250.461 117.406 250.134 117.819 249.894C118.246 249.641 118.719 249.514 119.239 249.514C119.759 249.514 120.226 249.641 120.639 249.894C121.066 250.134 121.406 250.461 121.659 250.874C121.912 251.288 122.039 251.754 122.039 252.274C122.039 252.794 121.912 253.268 121.659 253.694C121.419 254.121 121.086 254.461 120.659 254.714C120.232 254.954 119.759 255.074 119.239 255.074ZM119.219 253.934C119.699 253.934 120.092 253.781 120.399 253.474C120.706 253.168 120.859 252.768 120.859 252.274C120.859 251.794 120.699 251.408 120.379 251.114C120.059 250.808 119.672 250.654 119.219 250.654C118.779 250.654 118.406 250.808 118.099 251.114C117.792 251.408 117.639 251.794 117.639 252.274C117.639 252.768 117.792 253.168 118.099 253.474C118.406 253.781 118.779 253.934 119.219 253.934ZM113.959 246.474C113.452 246.474 112.986 246.354 112.559 246.114C112.132 245.861 111.792 245.528 111.539 245.114C111.286 244.688 111.159 244.214 111.159 243.694C111.159 243.174 111.286 242.708 111.539 242.294C111.792 241.868 112.126 241.534 112.539 241.294C112.966 241.041 113.439 240.914 113.959 240.914C114.479 240.914 114.946 241.041 115.359 241.294C115.786 241.534 116.126 241.868 116.379 242.294C116.632 242.708 116.759 243.174 116.759 243.694C116.759 244.214 116.632 244.688 116.379 245.114C116.139 245.528 115.806 245.861 115.379 246.114C114.952 246.354 114.479 246.474 113.959 246.474ZM113.939 245.334C114.419 245.334 114.806 245.181 115.099 244.874C115.406 244.568 115.559 244.168 115.559 243.674C115.559 243.194 115.399 242.808 115.079 242.514C114.772 242.208 114.392 242.054 113.939 242.054C113.499 242.054 113.126 242.208 112.819 242.514C112.512 242.808 112.359 243.194 112.359 243.674C112.359 244.168 112.512 244.568 112.819 244.874C113.126 245.181 113.499 245.334 113.939 245.334ZM130.801 255.054C129.828 255.054 128.921 254.874 128.081 254.514C127.241 254.154 126.508 253.654 125.881 253.014C125.255 252.374 124.768 251.628 124.421 250.774C124.075 249.908 123.901 248.974 123.901 247.974C123.901 246.974 124.075 246.048 124.421 245.194C124.781 244.341 125.275 243.594 125.901 242.954C126.528 242.301 127.268 241.794 128.121 241.434C128.975 241.074 129.901 240.894 130.901 240.894C132.008 240.894 133.021 241.114 133.941 241.554C134.875 241.994 135.641 242.614 136.241 243.414L135.221 244.434C134.741 243.754 134.128 243.234 133.381 242.874C132.635 242.501 131.808 242.314 130.901 242.314C129.821 242.314 128.868 242.561 128.041 243.054C127.215 243.534 126.568 244.201 126.101 245.054C125.648 245.908 125.421 246.888 125.421 247.994C125.421 249.088 125.648 250.061 126.101 250.914C126.568 251.768 127.201 252.441 128.001 252.934C128.815 253.414 129.735 253.654 130.761 253.654C131.788 253.654 132.675 253.448 133.421 253.034C134.181 252.621 134.761 252.021 135.161 251.234C135.575 250.448 135.788 249.501 135.801 248.394L136.641 249.014H130.621V247.674H137.321V247.894C137.321 249.441 137.041 250.748 136.481 251.814C135.935 252.881 135.175 253.688 134.201 254.234C133.228 254.781 132.095 255.054 130.801 255.054ZM139.31 254.874V245.474H140.71V254.874H139.31ZM140.71 249.394L140.13 249.134C140.13 247.948 140.417 247.008 140.99 246.314C141.577 245.621 142.377 245.274 143.39 245.274C143.857 245.274 144.283 245.361 144.67 245.534C145.057 245.694 145.417 245.954 145.75 246.314L144.83 247.294C144.603 247.041 144.35 246.861 144.07 246.754C143.803 246.648 143.497 246.594 143.15 246.594C142.43 246.594 141.843 246.834 141.39 247.314C140.937 247.781 140.71 248.474 140.71 249.394ZM150.768 255.074C149.861 255.074 149.034 254.854 148.288 254.414C147.554 253.974 146.968 253.381 146.528 252.634C146.101 251.888 145.888 251.054 145.888 250.134C145.888 249.228 146.101 248.408 146.528 247.674C146.968 246.941 147.554 246.361 148.288 245.934C149.034 245.494 149.861 245.274 150.768 245.274C151.688 245.274 152.514 245.488 153.248 245.914C153.981 246.341 154.561 246.928 154.988 247.674C155.428 248.408 155.648 249.228 155.648 250.134C155.648 251.068 155.428 251.908 154.988 252.654C154.561 253.388 153.981 253.974 153.248 254.414C152.514 254.854 151.688 255.074 150.768 255.074ZM150.768 253.714C151.434 253.714 152.021 253.561 152.528 253.254C153.048 252.948 153.454 252.521 153.748 251.974C154.054 251.428 154.208 250.814 154.208 250.134C154.208 249.454 154.054 248.854 153.748 248.334C153.454 247.801 153.048 247.381 152.528 247.074C152.021 246.768 151.434 246.614 150.768 246.614C150.114 246.614 149.528 246.768 149.008 247.074C148.488 247.381 148.081 247.801 147.788 248.334C147.494 248.854 147.348 249.454 147.348 250.134C147.348 250.828 147.494 251.448 147.788 251.994C148.081 252.528 148.488 252.948 149.008 253.254C149.528 253.561 150.114 253.714 150.768 253.714ZM159.782 254.874L156.162 245.474H157.622L160.482 253.274L159.962 253.294L162.802 245.474H163.622L166.462 253.294L165.942 253.274L168.782 245.474H170.262L166.622 254.874H165.802L162.902 247.174H163.502L160.622 254.874H159.782ZM173.144 254.874V241.514H174.544V254.874H173.144ZM170.764 246.734V245.474H176.904V246.734H170.764ZM185.273 254.874V249.354C185.273 248.528 185.026 247.861 184.533 247.354C184.053 246.834 183.413 246.574 182.613 246.574C182.066 246.574 181.586 246.694 181.173 246.934C180.759 247.174 180.433 247.501 180.193 247.914C179.953 248.328 179.833 248.801 179.833 249.334L179.193 248.974C179.193 248.268 179.359 247.634 179.693 247.074C180.026 246.514 180.473 246.074 181.033 245.754C181.606 245.434 182.259 245.274 182.993 245.274C183.713 245.274 184.353 245.441 184.913 245.774C185.473 246.094 185.906 246.541 186.213 247.114C186.533 247.688 186.693 248.354 186.693 249.114V254.874H185.273ZM178.433 254.874V240.714H179.833V254.874H178.433Z" fill="#FAFAFA"/>
</svg>
