<svg width="316" height="337" viewBox="0 0 316 294" fill="none" xmlns="http://www.w3.org/2000/svg">
<g clip-path="url(#clip0_251_74)">
<path opacity="0.6" d="M-76.0577 238.284L-204.413 301.729C-221.564 310.207 -226.759 332.204 -215.212 347.458L508.071 350.678L539.703 14.0435C540.514 5.40479 541.57 2.29276 532.5 1.44033C525.828 0.813522 523.028 -0.169863 519.511 5.53229C514.632 13.4373 506.771 25.7506 497.76 38.2199C477.94 65.6504 426.424 45.6453 381.871 84.445C337.319 123.245 321.715 139.27 284.694 139.257L223.276 139.237C186.101 139.225 150.258 151.846 122.19 174.833C59.0454 224.1 15.5528 227.57 -29.054 227.462C-45.358 227.422 -61.4419 231.06 -76.0577 238.284Z" fill="#585858"/>
<path opacity="0.5" d="M230.723 197.503L244.12 96.4794L149.701 198.178L230.723 197.503Z" fill="#E0FAEF"/>
<path opacity="0.4" d="M227.158 199.08C241.177 174.039 247.35 158.141 253.991 124.985C241.399 150.908 204.93 177.924 161.545 198.382L227.158 199.08Z" fill="#E0FAEF"/>
<path opacity="0.7" d="M220.491 198.819L224.082 78.1329L134.097 195.657L220.491 198.819Z" fill="#E0FAEF"/>
<path d="M242.115 196.805C228.304 211.899 200.745 226.24 91.4862 193.357C177.939 208.6 185.73 208.66 242.115 196.805Z" fill="#E0FAEF"/>
<path d="M242.115 196.805C221.027 189.052 193.606 192.585 154.05 191.266C124.948 190.296 133.026 191.362 91.4862 193.357C177.939 208.6 185.73 208.66 242.115 196.805Z" fill="#E0FAEF"/>
<path d="M203.005 197.117L206.781 56.9418L117.528 194.815L203.005 197.117Z" fill="#E0FAEF"/>
<path d="M-45.8831 293.859L418.733 293.859L418.733 32.9161L-45.8831 32.9161L-45.8831 293.859Z" fill="url(#paint0_radial_251_74)"/>
</g>
<defs>
<radialGradient id="paint0_radial_251_74" cx="0" cy="0" r="1" gradientUnits="userSpaceOnUse" gradientTransform="translate(469.156 374.098) rotate(-134.065) scale(333.191 665.647)">
<stop stop-color="#252525"/>
<stop offset="1" stop-color="#0C221B" stop-opacity="0"/>
</radialGradient>
<clipPath id="clip0_251_74">
<rect width="315" height="293" fill="white" transform="translate(0.583496 0.858643)"/>
</clipPath>
</defs>
</svg>
