<svg width="279" height="211" viewBox="0 0 279 311" fill="none" xmlns="http://www.w3.org/2000/svg">
<path d="M47.0916 291.873L0.666992 300.059L3.86461 318.194L50.2892 310.008L47.0916 291.873Z" fill="#00C2CB"/>
<path d="M82.6512 493.531L36.2266 501.717L3.73875 317.469L50.1634 309.284L82.6512 493.531Z" fill="#535353"/>
<path d="M123.946 235.69L77.5212 243.875L80.0793 258.383L126.504 250.197L123.946 235.69Z" fill="#D0C7FF"/>
<path d="M126.377 249.473L79.9526 257.659L82.5107 272.167L128.935 263.981L126.377 249.473Z" fill="#00C2CB"/>
<path d="M128.805 263.255L82.3804 271.441L98.2406 361.389L144.665 353.203L128.805 263.255Z" fill="#535353"/>
<path d="M169.208 0.336788L122.783 8.52271L147.852 150.698L194.277 142.512L169.208 0.336788Z" fill="#535353"/>
<path d="M250.939 463.857L204.514 472.043L147.852 150.698L194.277 142.512L250.939 463.857Z" fill="#3E3E3E"/>
<path d="M255.911 0.00732422L209.486 8.19324L226.242 103.219L272.666 95.0327L255.911 0.00732422Z" fill="#535353"/>
<path d="M335.084 449.02L288.659 457.206L226.242 103.219L272.666 95.0327L335.084 449.02Z" fill="#3E3E3E"/>
</svg>
