<svg width="316" height="127" viewBox="0 0 316 127" fill="none" xmlns="http://www.w3.org/2000/svg">
<path d="M-165.934 274.586C-142.18 270.397 -126.318 247.745 -130.507 223.991C-134.695 200.237 -157.348 184.375 -181.102 188.564C-204.856 192.752 -220.717 215.405 -216.529 239.159C-212.34 262.913 -189.688 278.774 -165.934 274.586Z" fill="#CFC7FF" opacity="0.5"/>
<path d="M265.476 86.8678C289.231 82.6793 305.092 60.0271 300.903 36.2728C296.715 12.5185 274.063 -3.34266 250.308 0.845865C226.554 5.03439 210.693 27.6865 214.882 51.4408C219.07 75.1951 241.722 91.0563 265.476 86.8678Z" fill="#CFC7FF" opacity="0.5"/>
<path d="M-118.879 289.939L-204.901 305.107L-202.327 319.704L-116.305 304.536L-118.879 289.939Z" fill="#CFC7FF" opacity="0.5"/>
<path d="M312.531 102.221L226.509 117.389L229.083 131.986L315.105 116.818L312.531 102.221Z" fill="#CFC7FF" opacity="0.5"/>
<path d="M-19.8299 206.904C3.92436 202.716 19.7856 180.064 15.597 156.309C11.4085 132.555 -11.2436 116.694 -34.9979 120.882C-58.7522 125.071 -74.6134 147.723 -70.4249 171.477C-66.2364 195.232 -43.5842 211.093 -19.8299 206.904Z" fill="#FFC6D4" opacity="0.5"/>
<path d="M27.224 222.257L-58.7979 237.425L-56.224 252.022L29.798 236.854L27.224 222.257Z" fill="#FFC6D4" opacity="0.5"/>
<path d="M-0.500854 254.027L-54.1994 263.496L-51.6255 278.093L2.0731 268.625L-0.500854 254.027Z" fill="#FFC6D4" opacity="0.5"/>
<path d="M126.276 139.214C150.031 135.026 165.892 112.374 161.703 88.6195C157.515 64.8652 134.863 49.004 111.108 53.1925C87.354 57.3811 71.4928 80.0332 75.6813 103.787C79.8698 127.542 102.522 143.403 126.276 139.214Z" fill="#FAFAFA" opacity="0.5"/>
<path d="M173.331 154.567L87.3091 169.735L89.8831 184.333L175.905 169.165L173.331 154.567Z" fill="#FAFAFA" opacity="0.5"/>
<path d="M145.605 186.337L91.9069 195.805L94.4808 210.403L148.179 200.934L145.605 186.337Z" fill="#FAFAFA" opacity="0.5"/>
</svg>