<svg width="81" height="88" viewBox="0 0 181 90" fill="none" xmlns="http://www.w3.org/2000/svg">
<path d="M75.069 9.61036L357.216 45.9944L354.025 70.7436L71.8773 34.3603L75.069 9.61036Z" fill="#535353"/>
<path d="M69.1179 55.7551L301.683 85.7454L298.49 110.507L65.9248 80.517L69.1179 55.7551Z" fill="#535353"/>
<path d="M63.1664 101.914L319.601 134.982L316.408 159.744L59.9733 126.675L63.1664 101.914Z" fill="#535353"/>
<path d="M57.2156 148.07L267.483 175.185L264.29 199.947L54.0223 172.833L57.2156 148.07Z" fill="#3E3E3E"/>
<path d="M0.683666 106.432C1.77499 97.9657 9.52329 91.988 17.9895 93.0793C26.4556 94.1713 32.4333 101.92 31.3415 110.385C30.2501 118.851 22.5016 124.83 14.0356 123.738C5.56957 122.646 -0.408363 114.898 0.683666 106.432Z" fill="#535353"/>
<path d="M6.61793 60.4447C7.70925 51.9785 15.4575 46.0008 23.9238 47.0921C32.3898 48.1841 38.3677 55.9317 37.2764 64.398C36.1844 72.864 28.4359 78.8424 19.9699 77.7504C11.5045 76.6586 5.5259 68.9108 6.61793 60.4447Z" fill="#535353"/>
<path d="M12.6001 14.0251C13.6914 5.55887 21.44 -0.419564 29.906 0.672466C38.372 1.76449 44.3499 9.51208 43.2586 17.9783C42.1666 26.4443 34.4183 32.4221 25.952 31.3307C17.4867 30.2389 11.5081 22.4911 12.6001 14.0251Z" fill="#535353"/>
</svg>
